<?xml version="1.0" encoding="utf-8"?>
<!-- Generator: Adobe Illustrator 19.2.1, SVG Export Plug-In . SVG Version: 6.00 Build 0)  -->
<svg version="1.1" id="Слой_1" xmlns="http://www.w3.org/2000/svg" xmlns:xlink="http://www.w3.org/1999/xlink" x="0px" y="0px"
	 viewBox="0 0 398.5 41" style="enable-background:new 0 0 398.5 41;" xml:space="preserve">
<style type="text/css">
	.st0{fill:#FFAB33;}
	.st1{fill:none;}
</style>
<g>
	<g>
		<path d="M383.6,1V9c4.2,2.1,7.1,6.5,7.1,11.5c0,7.1-5.8,12.9-12.9,12.9s-12.9-5.8-12.9-12.9c0-5,2.9-9.4,7.1-11.5V1
			c-8.4,2.5-14.5,10.3-14.5,19.5c0,11.2,9.1,20.3,20.3,20.3c11.2,0,20.3-9.1,20.3-20.3C398.1,11.3,392,3.5,383.6,1z"/>
		<rect x="375.5" y="0.2" class="st0" width="4.5" height="16.5"/>
	</g>
	<g>
		<path d="M146.6,39.7V9.5h-14.9V1.3h40.1v8.2h-14.9v30.2H146.6z"/>
		<path d="M191.5,39.7V9.5h-14.9V1.3h40.1v8.2h-14.9v30.2H191.5z"/>
		<path d="M278.3,20.5L262.2,1.3l12.1,0l10,12l10.1-12l12,0l-16.1,19.2l16.1,19.2h-12l-10.1-12l-10,12h-12.5L278.3,20.5z"/>
		<path d="M321.5,1.3v14.9h20V1.3h10.3v38.4h-10.3V24.4h-20v15.3h-10.3V1.3H321.5z"/>
		<polygon points="65.9,1.3 47.7,39.7 58.1,39.7 71.6,11 80.4,11 80.4,39.7 91.1,39.7 91.1,1.3 		"/>
		<path d="M18.5,1.3L0.4,39.7l10.4,0l4-8.4h18.4v8.4h10.7V1.3H18.5z M18.4,23.4L24.3,11h8.8v12.4H18.4z"/>
		<path d="M127.3,14.9h-18.7V1.3H98.5v38.4l28.8,0c2.6,0,4.7-2.1,4.7-4.8V19.6C132.1,17,129.9,14.9,127.3,14.9z M123.1,29.4
			c0,1.2-1,2.3-2.3,2.3h-12.2v-8.8h12.2c1.2,0,2.3,1,2.3,2.3V29.4z"/>
		<path d="M258.1,9.5h-26.4v6.7h20.7v9.2h-20.7v5.2h26.4v9.2h-36.7V1.3h36.7V9.5z"/>
	</g>
</g>
<rect class="st1" width="398.5" height="41"/>
</svg>
